<?xml version="1.0" encoding="utf-8"?>
<!-- Generator: Adobe Illustrator 24.3.0, SVG Export Plug-In . SVG Version: 6.00 Build 0)  -->
<svg version="1.1" id="OBJECTS" xmlns="http://www.w3.org/2000/svg" xmlns:xlink="http://www.w3.org/1999/xlink" x="0px" y="0px"
	 viewBox="0 0 500 500" style="enable-background:new 0 0 500 500;" xml:space="preserve">
<style type="text/css">
	.st0{fill:#E3E8E7;}
	.st1{fill:#FFD550;}
	.st2{fill:#00C3AD;}
	.st3{fill:#FF7859;}
	.st4{fill:#FF4653;}
	.st5{fill:#30325E;}
</style>
<g>
	<ellipse class="st0" cx="250" cy="471.87" rx="85.58" ry="20.62"/>
	<g>
		<g>
			<path class="st1" d="M192.06,107.18l53.55,68.83l-1.02,132.94h-6.57c-0.14-2.41-0.42-4.67-0.83-6.9
				c-3.7-19.72-17.59-32.96-17.59-32.96c-26.89-27.82-34.99-56.56-37.4-71.28c0-0.09-0.05-0.19-0.05-0.23
				c-0.88-5.46-0.97-8.98-1.02-9.72c0-0.14,0-0.19,0-0.19l46.33,26.34l-35.8-34.98c-7.35-7.19-10.83-17.4-9.6-27.61
				C183.94,135.98,187.54,121.12,192.06,107.18z"/>
			<path class="st2" d="M315.44,136.01l-60.96,47.26L253.14,7.52c0,0,14.44,16.89,29.82,43.96c4.5,7.92,5.03,17.51,1.33,25.83
				l-11.2,25.19l20.27-31.15c2.78,5.74,5.51,11.76,8.05,18.01l-28.88,46.66l35.22-29.21C310.86,116.16,313.5,125.92,315.44,136.01z"
				/>
			<path class="st3" d="M246.85,7.51l-1.17,157.79l-51.18-66.1c3.33-9.31,9.34-22.1,12.11-27.84l20.29,31.14l-11.19-25.15
				c-3.71-8.33-3.18-17.92,1.32-25.84C232.43,24.39,246.85,7.51,246.85,7.51z"/>
			<path class="st4" d="M272.53,214.01l46.33-26.29c0,0,0,0,0,0.14c-0.05,0.79-0.14,4.26-1.02,9.72c0,0.09-0.05,0.09-0.09,0.23
				c-0.6,3.66-1.57,8.24-3.06,13.42c-4.54,15.64-14.12,36.98-34.3,57.86c0,0-13.89,13.24-17.59,32.91v0.05
				c-0.42,2.27-0.74,4.54-0.83,6.85h-6.57l-0.83-116.92l62.26-48.23c0.05,0.32,0.09,0.69,0.14,1.06c0.28,1.53,0.46,3.05,0.65,4.58
				c0.23,1.48,0.42,2.96,0.56,4.44c0.23,2.13,0.46,4.3,0.6,6.43c0,0.03,0,0.05,0.01,0.08c0.43,5.02-1.52,9.95-5.12,13.47
				L272.53,214.01z"/>
		</g>
		<path class="st5" d="M303.2,394.9l-24.98-39.83v-17.97h5.69c2.87,0,5.2-2.33,5.2-5.2v-17.8c0-2.87-2.33-5.21-5.2-5.21H216.1
			c-2.87,0-5.2,2.33-5.2,5.21v17.8c0,2.87,2.33,5.2,5.2,5.2h5.69v17.97L196.8,394.9c-1.96,3.12-1.84,7.1,0.29,10.1l45.49,64
			c0.91,1.27,2.06,2.23,3.33,2.87V401.4c-2.47-1.42-4.15-4.06-4.15-7.11c0-4.55,3.69-8.23,8.23-8.23c4.55,0,8.23,3.69,8.23,8.23
			c0,3.05-1.68,5.69-4.15,7.11v70.47c1.28-0.64,2.43-1.59,3.33-2.87l45.49-64C305.04,402.01,305.15,398.02,303.2,394.9z"/>
	</g>
	<g>
		<path class="st5" d="M168.4,239.24c-2.37-0.11-4.63-0.33-6.79-0.66c-14.76-2.21-26.17-14.03-28.57-28.77
			c-1.01-6.2-1.37-12.53-1.07-18.88c0.06-1.33,0.22-2.58,0.32-3.88c10.17,12.85,21.78,18.65,21.78,18.65
			c-4.06-3.31-7.42-7.04-10.2-10.92c-8.18-11.42-9.35-26.4-3.86-39.33c8.46-19.94,25.18-30.03,25.18-30.03
			c-22.5,103.47,56.24,160.79,56.24,160.79c-27.22-15.11-52.63-16.74-66.18-30.99c-4.34-4.57-8.08-9.59-11.24-14.93
			C157.76,243.14,168.4,239.24,168.4,239.24z"/>
	</g>
	<g>
		<path class="st5" d="M331.6,239.24c2.37-0.11,4.63-0.33,6.79-0.66c14.76-2.21,26.17-14.03,28.57-28.77
			c1.01-6.2,1.37-12.53,1.07-18.88c-0.06-1.33-0.22-2.58-0.32-3.88c-10.17,12.85-21.78,18.65-21.78,18.65
			c4.06-3.31,7.42-7.04,10.2-10.92c8.18-11.42,9.35-26.4,3.86-39.33c-8.46-19.94-25.18-30.03-25.18-30.03
			c22.5,103.47-56.24,160.79-56.24,160.79c27.22-15.11,52.63-16.74,66.18-30.99c4.34-4.57,8.08-9.59,11.24-14.93
			C342.24,243.14,331.6,239.24,331.6,239.24z"/>
	</g>
</g>
</svg>
